<svg width="20" height="21" viewBox="0 0 20 21" fill="none" xmlns="http://www.w3.org/2000/svg">
  <mask id="mask0_371_2582" style="mask-type:alpha" maskUnits="userSpaceOnUse" x="0" y="0" width="20" height="21">
    <rect y="0.740845" width="20" height="20" fill="#D9D9D9"/>
  </mask>
  <g mask="url(#mask0_371_2582)">
    <path d="M17 5.24085C17 4.82835 16.8531 4.47522 16.5594 4.18147C16.2656 3.88772 15.9125 3.74085 15.5 3.74085L4.5 3.74084C4.0875 3.74084 3.73438 3.88772 3.44063 4.18147C3.14688 4.47522 3 4.82834 3 5.24084L3 16.2408C3 16.6533 3.14687 17.0065 3.44062 17.3002C3.73437 17.594 4.0875 17.7408 4.5 17.7408L11.1042 17.7408C11.0486 17.4908 11.0174 17.2408 11.0104 16.9908C11.0035 16.7408 11.0139 16.4908 11.0417 16.2408L4.5 16.2408L4.5 5.24084L15.5 5.24085L15.5 11.7825C15.75 11.7547 16 11.7443 16.25 11.7513C16.5 11.7582 16.75 11.7895 17 11.845L17 5.24085ZM19 16.8033L17.9375 15.7408L16.75 16.9075L16.75 13.7408L15.25 13.7408L15.25 16.9075L14.0625 15.7408L13 16.8033L16 19.7408L19 16.8033ZM14 9.99085L14 11.4908L10.75 11.4908L10.75 14.7408L9.25 14.7408L9.25 11.4908L6 11.4908L6 9.99084L9.25 9.99084L9.25 6.74084L10.75 6.74085L10.75 9.99085L14 9.99085Z" fill="#F8FAFC"/>
  </g>
</svg>
