<svg width="20" height="21" viewBox="0 0 20 21" fill="none" xmlns="http://www.w3.org/2000/svg">
  <mask id="mask0_372_2659" style="mask-type:alpha" maskUnits="userSpaceOnUse" x="0" y="0" width="20" height="21">
    <rect width="20" height="20" transform="matrix(1 0 0 -1 0 20.7408)" fill="#D9D9D9"/>
  </mask>
  <g mask="url(#mask0_372_2659)">
    <path d="M17 16.2408C17 16.6533 16.8531 17.0065 16.5594 17.3002C16.2656 17.594 15.9125 17.7408 15.5 17.7408L4.5 17.7408C4.0875 17.7408 3.73438 17.594 3.44063 17.3002C3.14688 17.0065 3 16.6533 3 16.2408L3 5.24084C3 4.82834 3.14687 4.47522 3.44062 4.18147C3.73437 3.88772 4.0875 3.74084 4.5 3.74084L11.1042 3.74084C11.0486 3.99084 11.0174 4.24084 11.0104 4.49084C11.0035 4.74084 11.0139 4.99084 11.0417 5.24084L4.5 5.24084L4.5 16.2408L15.5 16.2408L15.5 9.69918C15.75 9.72695 16 9.73737 16.25 9.73043C16.5 9.72348 16.75 9.69223 17 9.63668L17 16.2408ZM19 4.67834L17.9375 5.74084L16.75 4.57418L16.75 7.74084L15.25 7.74084L15.25 4.57418L14.0625 5.74084L13 4.67834L16 1.74084L19 4.67834ZM14 11.4908L14 9.99084L10.75 9.99084L10.75 6.74084L9.25 6.74084L9.25 9.99084L6 9.99084L6 11.4908L9.25 11.4908L9.25 14.7408L10.75 14.7408L10.75 11.4908L14 11.4908Z" fill="#F8FAFC"/>
  </g>
</svg>
