<svg
    width="20"
    height="20"
    viewBox="0 0 20 20"
    fill="none"
    xmlns="http://www.w3.org/2000/svg"
>
    <path
        d="M10 1.25C7.68804 1.27797 5.47866 2.20883 3.84374 3.84374C2.20883 5.47866 1.27797 7.68804 1.25 10C1.27797 12.312 2.20883 14.5213 3.84374 16.1563C5.47866 17.7912 7.68804 18.722 10 18.75C12.312 18.722 14.5213 17.7912 16.1563 16.1563C17.7912 14.5213 18.722 12.312 18.75 10C18.722 7.68804 17.7912 5.47866 16.1563 3.84374C14.5213 2.20883 12.312 1.27797 10 1.25ZM15 11H11V15H9V11H5V9H9V5H11V9H15V11Z"
    />
</svg>
