<svg width="20" height="21" viewBox="0 0 20 21" fill="none" xmlns="http://www.w3.org/2000/svg">
  <mask id="mask0_372_2663" style="mask-type:alpha" maskUnits="userSpaceOnUse" x="0" y="0" width="20" height="21">
    <rect y="0.740845" width="20" height="20" fill="#D9D9D9"/>
  </mask>
  <g mask="url(#mask0_372_2663)">
    <path d="M7.5 15.7408C7.0875 15.7408 6.73438 15.594 6.44062 15.3002C6.14687 15.0065 6 14.6533 6 14.2408V4.24084C6 3.82834 6.14687 3.47522 6.44062 3.18147C6.73438 2.88772 7.0875 2.74084 7.5 2.74084H15.5C15.9125 2.74084 16.2656 2.88772 16.5594 3.18147C16.8531 3.47522 17 3.82834 17 4.24084V14.2408C17 14.6533 16.8531 15.0065 16.5594 15.3002C16.2656 15.594 15.9125 15.7408 15.5 15.7408H7.5ZM7.5 14.2408H15.5V4.24084H7.5V14.2408ZM4.5 18.7408C4.0875 18.7408 3.73437 18.594 3.44062 18.3002C3.14687 18.0065 3 17.6533 3 17.2408V5.74084H4.5V17.2408H14V18.7408H4.5Z" fill="#F8FAFC"/>
  </g>
</svg>
