<svg width="20" height="20" viewBox="0 0 20 20" fill="none" xmlns="http://www.w3.org/2000/svg">
  <path d="M16.8748 10.475C16.8748 10.3187 16.8748 10.1625 16.8748 10C16.8748 9.8375 16.8748 9.68125 16.8748 9.51875L18.0748 8.46875C18.296 8.27378 18.4412 8.00689 18.4846 7.71525C18.5281 7.42361 18.467 7.12599 18.3123 6.875L16.8373 4.375C16.7277 4.18516 16.5701 4.02748 16.3803 3.91779C16.1905 3.80809 15.9752 3.75022 15.756 3.75C15.6202 3.74896 15.4851 3.77007 15.356 3.8125L13.8373 4.325C13.5751 4.15075 13.3016 3.99416 13.0185 3.85625L12.6998 2.28125C12.6426 1.9935 12.4861 1.73502 12.2576 1.55106C12.0291 1.3671 11.7431 1.26938 11.4498 1.275H8.52479C8.23148 1.26938 7.94553 1.3671 7.71701 1.55106C7.48848 1.73502 7.33195 1.9935 7.27479 2.28125L6.95604 3.85625C6.671 3.99412 6.3954 4.15071 6.13104 4.325L4.64354 3.7875C4.5131 3.75351 4.37803 3.74085 4.24354 3.75C4.02434 3.75022 3.80905 3.80809 3.61927 3.91779C3.42949 4.02748 3.27189 4.18516 3.16229 4.375L1.68729 6.875C1.54141 7.12561 1.4872 7.41916 1.53395 7.70535C1.5807 7.99154 1.72549 8.25258 1.94354 8.44375L3.12479 9.525V10C3.12479 10 3.12479 10.3187 3.12479 10.4812L1.94354 11.5312C1.71933 11.7237 1.57058 11.9895 1.52367 12.2812C1.47676 12.573 1.53473 12.8719 1.68729 13.125L3.16229 15.625C3.27189 15.8148 3.42949 15.9725 3.61927 16.0822C3.80905 16.1919 4.02434 16.2498 4.24354 16.25C4.37939 16.251 4.51449 16.2299 4.64354 16.1875L6.16229 15.675C6.4245 15.8492 6.69803 16.0058 6.98104 16.1437L7.29979 17.7187C7.35695 18.0065 7.51348 18.265 7.74201 18.4489C7.97053 18.6329 8.25648 18.7306 8.54979 18.725H11.4998C11.7931 18.7306 12.0791 18.6329 12.3076 18.4489C12.5361 18.265 12.6926 18.0065 12.7498 17.7187L13.0685 16.1437C13.3536 16.0059 13.6292 15.8493 13.8935 15.675L15.406 16.1875C15.5351 16.2299 15.6702 16.251 15.806 16.25C16.0252 16.2498 16.2405 16.1919 16.4303 16.0822C16.6201 15.9725 16.7777 15.8148 16.8873 15.625L18.3123 13.125C18.4582 12.8744 18.5124 12.5808 18.4656 12.2946C18.4189 12.0085 18.2741 11.7474 18.056 11.5562L16.8748 10.475ZM15.756 15L13.6123 14.275C13.1105 14.7001 12.5369 15.0323 11.9185 15.2562L11.4748 17.5H8.52479L8.08104 15.2812C7.46756 15.051 6.89712 14.7193 6.39354 14.3L4.24354 15L2.76854 12.5L4.46854 11C4.35298 10.353 4.35298 9.69071 4.46854 9.04375L2.76854 7.5L4.24354 5L6.38729 5.725C6.88913 5.29993 7.46267 4.96766 8.08104 4.74375L8.52479 2.5H11.4748L11.9185 4.71875C12.532 4.94901 13.1025 5.28071 13.606 5.7L15.756 5L17.231 7.5L15.531 9C15.6466 9.64696 15.6466 10.3093 15.531 10.9562L17.231 12.5L15.756 15Z" fill="#CBD5E1"/>
  <path d="M10 13.75C9.25832 13.75 8.5333 13.5301 7.91661 13.118C7.29993 12.706 6.81928 12.1203 6.53545 11.4351C6.25162 10.7498 6.17736 9.99584 6.32206 9.26841C6.46675 8.54098 6.8239 7.8728 7.34835 7.34835C7.8728 6.8239 8.54098 6.46675 9.26841 6.32206C9.99584 6.17736 10.7498 6.25162 11.4351 6.53545C12.1203 6.81928 12.706 7.29993 13.118 7.91661C13.5301 8.5333 13.75 9.25832 13.75 10C13.755 10.4939 13.6614 10.9837 13.4748 11.441C13.2881 11.8982 13.0121 12.3136 12.6628 12.6628C12.3136 13.0121 11.8982 13.2881 11.441 13.4748C10.9837 13.6614 10.4939 13.755 10 13.75ZM10 7.5C9.66959 7.4923 9.34105 7.55171 9.03426 7.67462C8.72747 7.79753 8.44879 7.9814 8.2151 8.2151C7.9814 8.44879 7.79753 8.72747 7.67462 9.03426C7.55171 9.34105 7.4923 9.66959 7.5 10C7.4923 10.3304 7.55171 10.6589 7.67462 10.9657C7.79753 11.2725 7.9814 11.5512 8.2151 11.7849C8.44879 12.0186 8.72747 12.2025 9.03426 12.3254C9.34105 12.4483 9.66959 12.5077 10 12.5C10.3304 12.5077 10.6589 12.4483 10.9657 12.3254C11.2725 12.2025 11.5512 12.0186 11.7849 11.7849C12.0186 11.5512 12.2025 11.2725 12.3254 10.9657C12.4483 10.6589 12.5077 10.3304 12.5 10C12.5077 9.66959 12.4483 9.34105 12.3254 9.03426C12.2025 8.72747 12.0186 8.44879 11.7849 8.2151C11.5512 7.9814 11.2725 7.79753 10.9657 7.67462C10.6589 7.55171 10.3304 7.4923 10 7.5Z" fill="#CBD5E1"/>
</svg>
