<svg width="20" height="21" viewBox="0 0 20 21" fill="none" xmlns="http://www.w3.org/2000/svg">
  <path d="M18.1249 17.7412L13.4048 13.0211C14.539 11.6595 15.1046 9.913 14.9839 8.14497C14.8632 6.37694 14.0655 4.72351 12.7568 3.52863C11.4481 2.33375 9.7291 1.68942 7.95741 1.72968C6.18572 1.76994 4.49776 2.49169 3.24467 3.74478C1.99157 4.99788 1.26982 6.68584 1.22956 8.45752C1.1893 10.2292 1.83363 11.9482 3.02851 13.2569C4.22339 14.5657 5.87682 15.3633 7.64485 15.484C9.41288 15.6047 11.1594 15.0392 12.521 13.905L17.2411 18.625L18.1249 17.7412ZM2.4999 8.62502C2.4999 7.5125 2.8298 6.42496 3.44789 5.49994C4.06597 4.57491 4.94448 3.85394 5.97231 3.4282C7.00014 3.00245 8.13114 2.89106 9.22229 3.1081C10.3134 3.32514 11.3157 3.86087 12.1024 4.64754C12.8891 5.43421 13.4248 6.43649 13.6418 7.52764C13.8589 8.61878 13.7475 9.74978 13.3217 10.7776C12.896 11.8054 12.175 12.684 11.25 13.302C10.325 13.9201 9.23742 14.25 8.1249 14.25C6.63357 14.2484 5.20379 13.6552 4.14926 12.6007C3.09472 11.5461 2.50156 10.1164 2.4999 8.62502Z" />
</svg>
