<svg
    width="20"
    height="20"
    viewBox="0 0 20 20"
    fill="none"
    xmlns="http://www.w3.org/2000/svg"
>
    <path
        d="M12.5 17C12.0875 17 11.7344 16.8531 11.4406 16.5594C11.1469 16.2656 11 15.9125 11 15.5V4.5C11 4.09722 11.1469 3.74653 11.4406 3.44792C11.7344 3.14931 12.0875 3 12.5 3H15.5C15.9028 3 16.2535 3.14931 16.5521 3.44792C16.8507 3.74653 17 4.09722 17 4.5V15.5C17 15.9125 16.8507 16.2656 16.5521 16.5594C16.2535 16.8531 15.9028 17 15.5 17H12.5ZM12.5 4.5V15.5H15.5V4.5H12.5ZM4.5 17C4.0875 17 3.73437 16.8531 3.44062 16.5594C3.14687 16.2656 3 15.9125 3 15.5V4.5C3 4.09722 3.14687 3.74653 3.44062 3.44792C3.73437 3.14931 4.0875 3 4.5 3H7.5C7.90278 3 8.25347 3.14931 8.55208 3.44792C8.85069 3.74653 9 4.09722 9 4.5V15.5C9 15.9125 8.85069 16.2656 8.55208 16.5594C8.25347 16.8531 7.90278 17 7.5 17H4.5ZM4.5 4.5V15.5H7.5V4.5H4.5Z"
    />
</svg>
