<svg width="20" height="20" viewBox="0 0 20 20" fill="none" xmlns="http://www.w3.org/2000/svg">
  <mask id="mask0_399_1935" style="mask-type:alpha" maskUnits="userSpaceOnUse" x="0" y="0" width="20" height="20">
    <rect width="20" height="20" fill="#D9D9D9"/>
  </mask>
  <g mask="url(#mask0_399_1935)">
    <path d="M4.5 17.1458C4.0875 17.1458 3.73437 16.999 3.44062 16.7052C3.14687 16.4115 3 16.0583 3 15.6458V4.64583C3 4.23333 3.14687 3.88021 3.44062 3.58646C3.73437 3.29271 4.0875 3.14583 4.5 3.14583H11.0208L9.52083 4.64583H4.5V15.6458H15.5V10.6667L17 9.14583V15.6458C17 16.0583 16.8531 16.4115 16.5594 16.7052C16.2656 16.999 15.9125 17.1458 15.5 17.1458H4.5ZM13.625 3.33333L14.7083 4.41667L9.5 9.58333V10.6458H10.5625L15.75 5.47917L16.7917 6.54167L11.1875 12.1458H8V8.97917L13.625 3.33333ZM16.7917 6.54167L13.625 3.33333L15.3958 1.5625C15.6889 1.27083 16.0399 1.125 16.4489 1.125C16.858 1.125 17.2083 1.27083 17.5 1.5625L18.5781 2.6461C18.8732 2.93759 19.0208 3.28933 19.0208 3.70131C19.0208 4.1133 18.875 4.46286 18.5833 4.75L16.7917 6.54167Z" fill="#CBD5E1"/>
  </g>
</svg>
